# xmcd
#
# Track frame offsets: 
#        150
#        27247
#        44880
#        70315
#        87100
#        100187
#        126135
#        144120
#        156220
#        168652
#        185740
#        208657
#        231115
#
# Disc length: 3355 seconds
#
# Revision: 1
# Processed by: cddbd v1.5PL3 Copyright (c) Steve Scherf et al.
# Submitted via: ExactAudioCopy v0.95a4
#
DISCID=b70d190d
DTITLE=John Trudell - Bone Days
DYEAR=2002
DGENRE=Blues
TTITLE0=Crazy Horse
TTITLE1=Other Close Times
TTITLE2=Undercurrent
TTITLE3=Carry The Stone
TTITLE4=Ever Get The Blues
TTITLE5=Lucky Motel
TTITLE6=Bone Days
TTITLE7=Takes My Breath
TTITLE8=Spectator
TTITLE9=Sorry Love
TTITLE10=Nothing In Her Eyes
TTITLE11=Doesn't Hurt Anymore
TTITLE12=Hanging From The Cross
EXTD=Native American Artist
EXTT0=
EXTT1=
EXTT2=
EXTT3=
EXTT4=
EXTT5=
EXTT6=
EXTT7=
EXTT8=
EXTT9=
EXTT10=
EXTT11=
EXTT12=
PLAYORDER=
